<?xml version="1.0" encoding="utf-8"?>
<!-- Generator: Adobe Illustrator 21.0.0, SVG Export Plug-In . SVG Version: 6.00 Build 0)  -->
<svg version="1.1"
	 id="Layer_1" xmlns:cc="http://creativecommons.org/ns#" xmlns:dc="http://purl.org/dc/elements/1.1/" xmlns:inkscape="http://www.inkscape.org/namespaces/inkscape" xmlns:rdf="http://www.w3.org/1999/02/22-rdf-syntax-ns#" xmlns:sodipodi="http://sodipodi.sourceforge.net/DTD/sodipodi-0.dtd" xmlns:svg="http://www.w3.org/2000/svg"
	 xmlns="http://www.w3.org/2000/svg" xmlns:xlink="http://www.w3.org/1999/xlink" x="0px" y="0px" viewBox="0 0 800 1000"
	 style="enable-background:new 0 0 800 1000;" xml:space="preserve">
<style type="text/css">
	.st0{fill:#FFFFFF;}
</style>
<g>
	<path class="st0" d="M628.6,697.2c8,0,14.4-6.5,14.4-14.4c0-8-6.5-14.4-14.4-14.4H171.4c-8,0-14.4,6.5-14.4,14.4
		c0,8,6.5,14.4,14.4,14.4H628.6z"/>
	<path class="st0" d="M714.1,133.4c-4.3,0-8.5,0.7-12.4,1.9c-3.7-18.5-20.1-32.5-39.7-32.5c-22.3,0-40.4,18.1-40.4,40.4v46.6H178.4
		v-46.6c0-22.3-18.1-40.4-40.4-40.4c-19.6,0-35.9,14-39.6,32.5c-3.9-1.3-8-1.9-12.3-1.9c-22.3,0-40.4,18.1-40.4,40.4v61.1
		c0,22.3,18.1,40.4,40.4,40.4c4.3,0,8.5-0.7,12.3-1.9c3.7,18.5,20.1,32.5,39.6,32.5c22.3,0,40.4-18.1,40.4-40.4v-46.7h44V613H61.7
		c-8,0-14.4,6.5-14.4,14.4c0,8,6.5,14.4,14.4,14.4h676.7c8,0,14.4-6.5,14.4-14.4c0-8-6.5-14.4-14.4-14.4H583.2V218.8h38.4v46.7
		c0,22.3,18.1,40.4,40.4,40.4c19.6,0,35.9-14,39.7-32.5c3.9,1.3,8,1.9,12.4,1.9c22.3,0,40.4-18.1,40.4-40.4v-61.1
		C754.5,151.5,736.4,133.4,714.1,133.4z M97.5,234.9c0,6.4-5.2,11.6-11.6,11.6c-6.4,0-11.6-5.2-11.6-11.6v-61.1
		c0-6.4,5.2-11.6,11.6-11.6c6.4,0,11.6,5.2,11.6,11.6V234.9z M149.5,265.4c0,6.4-5.2,11.6-11.6,11.6c-6.4,0-11.6-5.2-11.6-11.6
		v-30.6v-61.1v-30.5c0-6.4,5.2-11.6,11.6-11.6c6.4,0,11.6,5.2,11.6,11.6V265.4z M554.3,613H251.2V218.8h303.2V613z M673.7,173.8
		v61.1v30.5c0,6.4-5.2,11.6-11.6,11.6c-6.4,0-11.6-5.2-11.6-11.6V143.3c0-6.4,5.2-11.6,11.6-11.6c6.4,0,11.6,5.2,11.6,11.6V173.8z
		 M725.7,234.9c0,6.4-5.2,11.6-11.6,11.6c-6.4,0-11.6-5.2-11.6-11.6v-61.1c0-6.4,5.2-11.6,11.6-11.6c6.4,0,11.6,5.2,11.6,11.6V234.9
		z"/>
</g>
</svg>
