<?xml version="1.0" encoding="utf-8"?>
<!-- Generator: Adobe Illustrator 21.0.0, SVG Export Plug-In . SVG Version: 6.00 Build 0)  -->
<svg version="1.1"
	 id="Layer_1" xmlns:cc="http://creativecommons.org/ns#" xmlns:dc="http://purl.org/dc/elements/1.1/" xmlns:inkscape="http://www.inkscape.org/namespaces/inkscape" xmlns:rdf="http://www.w3.org/1999/02/22-rdf-syntax-ns#" xmlns:sodipodi="http://sodipodi.sourceforge.net/DTD/sodipodi-0.dtd" xmlns:svg="http://www.w3.org/2000/svg"
	 xmlns="http://www.w3.org/2000/svg" xmlns:xlink="http://www.w3.org/1999/xlink" x="0px" y="0px" viewBox="0 0 100 125"
	 style="enable-background:new 0 0 100 125;" xml:space="preserve">
<style type="text/css">
	.st0{fill:#FFFFFF;}
</style>
<g transform="translate(0,-952.36218)">
	<path class="st0" d="M29,975.4c-3.3,0-6,2.7-6,6h-3c-3.9,0-7,3.1-7,7v8H8c-1.1,0-2,0.9-2,2v8c0,1.1,0.9,2,2,2h5v8c0,3.9,3.1,7,7,7
		h3c0,3.3,2.7,6,6,6h4c3.3,0,6-2.7,6-6v-15h22v15c0,3.3,2.7,6,6,6h4c3.3,0,6-2.7,6-6h3c3.9,0,7-3.1,7-7v-8h5c1.1,0,2-0.9,2-2v-8
		c0-1.1-0.9-2-2-2h-5v-8c0-3.9-3.1-7-7-7h-3c0-3.3-2.7-6-6-6h-4c-3.3,0-6,2.7-6,6v15H39v-15c0-3.3-2.7-6-6-6H29z M29,977.4h4
		c2.2,0,4,1.8,4,4v42c0,2.2-1.8,4-4,4h-4c-2.2,0-4-1.8-4-4v-42C25,979.1,26.8,977.4,29,977.4z M67,977.4h4c2.2,0,4,1.8,4,4v42
		c0,2.2-1.8,4-4,4h-4c-2.2,0-4-1.8-4-4v-42C63,979.1,64.8,977.4,67,977.4z M20,983.4h3v38h-3c-2.8,0-5-2.2-5-5v-28
		C15,985.6,17.2,983.4,20,983.4z M77,983.4h3c2.8,0,5,2.2,5,5v28c0,2.8-2.2,5-5,5h-3V983.4z M8,998.4h5v8H8V998.4z M39,998.4h22v8
		H39V998.4z M87,998.4h5v8h-5V998.4z"/>
</g>
</svg>
