<?xml version="1.0" encoding="utf-8"?>
<!-- Generator: Adobe Illustrator 21.0.0, SVG Export Plug-In . SVG Version: 6.00 Build 0)  -->
<svg version="1.1" id="Layer_1" xmlns="http://www.w3.org/2000/svg" xmlns:xlink="http://www.w3.org/1999/xlink" x="0px" y="0px"
	 viewBox="0 0 100 125" style="enable-background:new 0 0 100 125;" xml:space="preserve">
<style type="text/css">
	.st0{fill:#FFFFFF;}
</style>
<path class="st0" d="M67.6,95H32.4c-1.2,0-2.3-0.4-3.4-1.1H29l-0.5-0.3c-0.1-0.1-0.1-0.1-0.2-0.2l-0.1-0.1c-0.1-0.1-0.2-0.2-0.3-0.3
	c-7.7-6.5-12-15.9-12-25.8c0-6.6,1.9-12.9,5.4-18.4C18,44.1,16.2,38.7,16.2,33c0-15.4,12.6-28,28-28H56c15.4,0,28,12.6,28,28
	c0,5.7-1.8,11.3-5.2,16.1c3.5,5.5,5.3,11.7,5.3,18.2c0,9.8-4.4,19.2-12,25.8c-0.1,0.1-0.2,0.2-0.3,0.3c-0.1,0.1-0.2,0.2-0.3,0.3
	l-0.4,0.3H71C69.9,94.6,68.8,95,67.6,95z M30.1,91.2l0.2,0.2c0.7,0.5,1.4,0.8,2.1,0.8h35.1c0.7,0,1.4-0.3,2.1-0.8L70,91c0,0,0,0,0,0
	l0.1-0.1c7-6,11.1-14.6,11.1-23.6c0-6.3-1.9-12.3-5.4-17.5L75.3,49l0.6-0.8c3.4-4.5,5.2-9.7,5.2-15.1C81.1,19.2,69.9,7.9,56,7.9
	H44.2C30.4,7.9,19.1,19.2,19.1,33c0,5.4,1.8,10.6,5.1,15l0.6,0.8l-0.6,0.9c-3.6,5.2-5.5,11.3-5.5,17.6c0,9,4,17.6,11.1,23.6L30,91
	C30,91.1,30.1,91.1,30.1,91.2L30.1,91.2z M68.1,41.9l-1.3-0.8c-5.1-3.3-10.9-5-16.8-5c-5.8,0-11.6,1.7-16.6,4.9l-1.3,0.8l-0.8-1.3
	c-1.4-2.4-2.1-4.9-2.1-7.5c0-8.2,6.7-14.9,14.9-14.9H56C64.3,18.1,71,24.8,71,33c0,2.6-0.7,5.2-2.1,7.6L68.1,41.9z M50,33.2
	c6,0,11.8,1.6,17,4.6c0.7-1.5,1-3.1,1-4.8c0-6.6-5.4-12-12-12H44.2c-6.6,0-12,5.4-12,12c0,1.6,0.3,3.2,1,4.7
	C38.4,34.7,44.1,33.2,50,33.2z"/>
</svg>
