<?xml version="1.0" encoding="utf-8"?>
<!-- Generator: Adobe Illustrator 21.0.0, SVG Export Plug-In . SVG Version: 6.00 Build 0)  -->
<svg version="1.1" id="Layer_1" xmlns="http://www.w3.org/2000/svg" xmlns:xlink="http://www.w3.org/1999/xlink" x="0px" y="0px"
	 viewBox="0 0 55.1 35.2" style="enable-background:new 0 0 55.1 35.2;" xml:space="preserve">
<style type="text/css">
	.st0{fill:#FFFFFF;}
</style>
<title>rowing-machine</title>
<path class="st0" d="M49.1,0c-3.3,0-6,2.7-6,6s2.7,6,6,6s6-2.7,6-6S52.4,0,49.1,0z M49.1,10.5c-2.5,0-4.5-2-4.5-4.5s2-4.5,4.5-4.5
	s4.5,2,4.5,4.5S51.6,10.5,49.1,10.5L49.1,10.5z"/>
<polygon class="st0" points="4.5,27.3 1.7,26.3 4.1,20.1 34.4,20.1 44,8.1 46.3,10 35.8,23.1 6.2,23.1 "/>
<path class="st0" d="M19.1,18h-8c-1.1,0-2-0.9-2-2l0,0c0-1.1,0.9-2,2-2h8c1.1,0,2,0.9,2,2l0,0C21.1,17.1,20.2,18,19.1,18z"/>
<rect x="38.1" y="0.3" transform="matrix(0.4473 -0.8944 0.8944 0.4473 15.3287 38.9005)" class="st0" width="2" height="13.4"/>
<path class="st0" d="M34.1,8h-2c-0.6,0-1-0.4-1-1V1c0-0.6,0.4-1,1-1h2c0.6,0,1,0.4,1,1v6C35.1,7.6,34.7,8,34.1,8z"/>
<rect x="40.6" y="15.6" transform="matrix(0.6247 -0.7809 0.7809 0.6247 -1.3729 41.1473)" class="st0" width="3" height="12.8"/>
<path class="st0" d="M8,28.1H0v-4h8V28.1z"/>
<path class="st0" d="M48.9,28h-8v-4h8V28z"/>
<path class="st0" d="M52.4,6c0,1.8-1.5,3.3-3.3,3.3S45.8,7.8,45.8,6s1.5-3.3,3.3-3.3l0,0C50.9,2.7,52.4,4.2,52.4,6z"/>
</svg>
