<?xml version="1.0" encoding="utf-8"?>
<!-- Generator: Adobe Illustrator 21.0.0, SVG Export Plug-In . SVG Version: 6.00 Build 0)  -->
<svg version="1.1" id="Layer_1" xmlns="http://www.w3.org/2000/svg" xmlns:xlink="http://www.w3.org/1999/xlink" x="0px" y="0px"
	 viewBox="0 0 100 125" style="enable-background:new 0 0 100 125;" xml:space="preserve">
<style type="text/css">
	.st0{fill:#FFFFFF;}
</style>
<path class="st0" d="M89.8,16l-48.9,5.7L9.4,9.4L54.2,5L89.8,16z M7.1,74.3l32.4,20.1l0.2-69.7L7.3,11.9L7.1,74.3z M92.9,85.8
	L42.6,95l0.2-70.4l49.5-5.7L92.9,85.8z M77.7,28.8c-0.2-1.5-1.5-2.6-3-2.4l-12.2,1.3c-1.5,0.2-2.6,1.5-2.4,3c0.2,1.5,1.5,2.6,3,2.4
	l12.2-1.3C76.7,31.6,77.8,30.3,77.7,28.8z"/>
</svg>
